<?xml version="1.0" encoding="iso-8859-1"?>
<!-- Generator: Adobe Illustrator 19.0.0, SVG Export Plug-In . SVG Version: 6.00 Build 0)  -->
<svg version="1.1" id="Capa_1" xmlns="http://www.w3.org/2000/svg" xmlns:xlink="http://www.w3.org/1999/xlink" x="0px" y="0px"
	 viewBox="0 0 512 512" style="enable-background:new 0 0 512 512;" xml:space="preserve">
<polyline style="fill:#F9E0A0;" points="485.517,392.828 512,392.828 512,39.724 0,39.724 0,392.828 326.621,392.828 
	388.414,392.828 423.724,392.828 485.517,392.828 "/>
<path style="fill:#EBEBEB;" d="M476.69,278.069V110.345h0.035l0,0c-19.703,0-35.363-15.607-35.363-35.31l0.018,0.371L70.621,75.034
	h0.141c0,20.109-15.201,35.31-35.31,35.31L35.31,322.207v-0.018l0,0c20.109,0,35.31,15.069,35.31,35.178v0.044l264.828,0.106h96.547
	l35.866-47.819L476.69,278.069"/>
<polygon style="fill:#EA9D2D;" points="450.207,331.034 512,445.793 467.006,437.071 441.379,472.276 406.069,348.69 "/>
<path style="fill:#D68F29;" d="M450.207,331.034l-44.138,17.655l9.949,34.807c19.253-1.96,36.82-9.569,51.076-21.107
	L450.207,331.034z"/>
<polygon style="fill:#FBB540;" points="361.931,331.034 300.138,445.793 345.132,437.071 370.759,472.276 406.069,348.69 "/>
<path style="fill:#EA9D2D;" d="M396.12,383.497l9.949-34.807l-44.138-17.655l-16.878,31.347
	C359.309,373.928,376.867,381.537,396.12,383.497z"/>
<g>
	<path style="fill:#B9B9B9;" d="M406.069,136.828H105.931c-4.882,0-8.828-3.955-8.828-8.828s3.946-8.828,8.828-8.828h300.138
		c4.882,0,8.828,3.955,8.828,8.828S410.951,136.828,406.069,136.828z"/>
	<path style="fill:#B9B9B9;" d="M406.069,189.793H105.931c-4.882,0-8.828-3.955-8.828-8.828s3.946-8.828,8.828-8.828h300.138
		c4.882,0,8.828,3.955,8.828,8.828S410.951,189.793,406.069,189.793z"/>
	<path style="fill:#B9B9B9;" d="M256,242.759H105.931c-4.882,0-8.828-3.955-8.828-8.828s3.946-8.828,8.828-8.828H256
		c4.882,0,8.828,3.955,8.828,8.828S260.882,242.759,256,242.759z"/>
	<path style="fill:#B9B9B9;" d="M256,295.724H105.931c-4.882,0-8.828-3.955-8.828-8.828s3.946-8.828,8.828-8.828H256
		c4.882,0,8.828,3.955,8.828,8.828S260.882,295.724,256,295.724z"/>
</g>
<circle style="fill:#DC4D41;" cx="406.07" cy="286.9" r="70.62"/>
<circle style="fill:#EA6B65;" cx="406.07" cy="286.9" r="35.31"/>
<g>
</g>
<g>
</g>
<g>
</g>
<g>
</g>
<g>
</g>
<g>
</g>
<g>
</g>
<g>
</g>
<g>
</g>
<g>
</g>
<g>
</g>
<g>
</g>
<g>
</g>
<g>
</g>
<g>
</g>
</svg>
